"And Now His Watch Is Ended" The Night's Watch takes stock; Varys meets his better; Arya is taken to the commander of the Brotherhood; Daenerys makes an exchange.

Format                                   : MPEG-4
Format profile                           : Base Media
File size                                : 391 MiB
Duration                                 : 54mn 51s


Video
ID                                       : 2
Format                                   : AVC
Format/Info                              : Advanced Video Codec
Format profile                           : High@L3.1
Format settings, CABAC                   : Yes
Format settings, ReFrames                : 5 frames
Codec ID                                 : avc1
Codec ID/Info                            : Advanced Video Coding
Duration                                 : 54mn 51s
Source duration                          : 54mn 51s
Bit rate                                 : 877 Kbps
Maximum bit rate                         : 14.7 Mbps
Width                                    : 720 pixels
Height                                   : 404 pixels
Display aspect ratio                     : 16:9
Frame rate mode                          : Constant
Frame rate                               : 23.976 fps
Color space                              : YUV
Chroma subsampling                       : 4:2:0
Bit depth                                : 8 bits
Scan type                                : Progressive
Bits/(Pixel*Frame)                       : 0.126
Stream size                              : 344 MiB (88%)
Source stream size                       : 344 MiB

Audio
ID                                       : 1
Format                                   : AAC
Format/Info                              : Advanced Audio Codec
Format profile                           : LC
Codec ID                                 : 40
Duration                                 : 54mn 51s
Bit rate mode                            : Variable
Bit rate                                 : 117 Kbps
Maximum bit rate                         : 152 Kbps
Channel(s)                               : 2 channels
Channel positions                        : Front: L R
Sampling rate                            : 48.0 KHz
Compression mode                         : Lossy
Stream size                              : 45.8 MiB (12%)


